<svg xmlns="http://www.w3.org/2000/svg" width="14.077" height="11.06" viewBox="0 0 14.077 11.06">
    <defs>
        <style>
            .cls-1{fill:#fff}
        </style>
    </defs>
    <g id="envelope" transform="translate(0 -54.82)">
        <g id="Grupo_1226" data-name="Grupo 1226" transform="translate(0 54.82)">
            <path id="Trazado_654" d="M1.351 58.229q.267.188 1.61 1.119t2.058 1.433l.334.24q.255.185.424.3t.409.255a2.37 2.37 0 0 0 .452.212 1.245 1.245 0 0 0 .393.071h.016a1.246 1.246 0 0 0 .393-.071 2.372 2.372 0 0 0 .452-.212q.24-.142.408-.255t.424-.3q.255-.185.334-.24l3.676-2.553a3.732 3.732 0 0 0 .958-.966 2.074 2.074 0 0 0 .385-1.186 1.267 1.267 0 0 0-1.257-1.256H1.257a1.122 1.122 0 0 0-.931.408A1.586 1.586 0 0 0 0 56.25a1.835 1.835 0 0 0 .432 1.072 3.9 3.9 0 0 0 .919.907z" class="cls-1" data-name="Trazado 654" transform="translate(0 -54.82)"/>
            <path id="Trazado_655" d="M13.291 185.12q-2.576 1.744-3.912 2.71-.448.33-.727.514a4.484 4.484 0 0 1-.742.377 2.26 2.26 0 0 1-.864.192H7.03a2.261 2.261 0 0 1-.864-.192 4.486 4.486 0 0 1-.742-.377q-.279-.184-.727-.514-1.061-.778-3.9-2.71a4.16 4.16 0 0 1-.797-.683v6.237a1.21 1.21 0 0 0 .369.888 1.21 1.21 0 0 0 .888.369H12.82a1.261 1.261 0 0 0 1.257-1.257v-6.237a4.332 4.332 0 0 1-.786.683z" class="cls-1" data-name="Trazado 655" transform="translate(0 -180.871)"/>
        </g>
    </g>
</svg>
