<svg xmlns="http://www.w3.org/2000/svg" width="14.074" height="49.12" viewBox="0 0 14.074 49.12">
    <defs>
        <style>
            .cls-1,.cls-2,.cls-3{fill:#f140b4}.cls-2{opacity:.809}.cls-3{opacity:.802}
        </style>
    </defs>
    <g id="Grupo_1397" data-name="Grupo 1397">
        <path id="ic_airport_shuttle_24px" d="M11.236 5H2.279A1.3 1.3 0 0 0 1 6.312v5.905h1.279A1.946 1.946 0 0 0 4.2 14.186a1.946 1.946 0 0 0 1.919-1.968h3.517a1.92 1.92 0 1 0 3.838 0h1.6V8.937zM2.279 8.937V6.312h3.839v2.625zM4.2 13.2a.985.985 0 1 1 .96-.984.971.971 0 0 1-.96.984zm5.03-4.263H6.118V6.312H9.23zm2.325 4.263a.985.985 0 1 1 .96-.984.971.971 0 0 1-.96.984zM9.8 8.937V6.312h.8l2.559 2.625z" class="cls-1" transform="translate(-1 15.774)"/>
        <g id="Grupo_1327" data-name="Grupo 1327" transform="rotate(-90 9.103 3.944)">
            <circle id="Elipse_286" cx="1.919" cy="1.919" r="1.919" class="cls-1" data-name="Elipse 286" transform="translate(9.21)"/>
            <circle id="Elipse_287" cx="1.151" cy="1.151" r="1.151" class="cls-2" data-name="Elipse 287" transform="translate(3.837 .767)"/>
            <circle id="Elipse_288" cx=".384" cy=".384" r=".384" class="cls-2" data-name="Elipse 288" transform="translate(0 1.535)"/>
        </g>
        <g id="Grupo_1328" data-name="Grupo 1328" transform="rotate(-90 27.14 21.98)">
            <circle id="Elipse_289" cx="1.919" cy="1.919" r="1.919" class="cls-1" data-name="Elipse 289" transform="rotate(180 1.918 1.919)"/>
            <circle id="Elipse_290" cx="1.151" cy="1.151" r="1.151" class="cls-3" data-name="Elipse 290" transform="rotate(180 4.605 1.535)"/>
            <circle id="Elipse_291" cx=".384" cy=".384" r=".384" class="cls-3" data-name="Elipse 291" transform="rotate(180 6.524 1.151)"/>
        </g>
    </g>
</svg>
